<svg preserveAspectRatio="none" overflow="visible" style="display: block;" width="33" height="33" viewBox="0 0 33 33" fill="none" xmlns="http://www.w3.org/2000/svg">
<g id="Frame">
<path id="Vector" d="M11.1719 29.1672C9.49896 28.4453 8.03802 27.4599 6.78906 26.2109C5.5401 24.962 4.55469 23.501 3.83281 21.8281C3.11094 20.1552 2.75 18.3734 2.75 16.4828C2.75 14.5922 3.11094 12.8161 3.83281 11.1547C4.55469 9.49323 5.5401 8.03802 6.78906 6.78906C8.03802 5.5401 9.49896 4.55469 11.1719 3.83281C12.8448 3.11094 14.6266 2.75 16.5172 2.75C18.4078 2.75 20.1839 3.11094 21.8453 3.83281C23.5068 4.55469 24.962 5.5401 26.2109 6.78906C27.4599 8.03802 28.4453 9.49323 29.1672 11.1547C29.8891 12.8161 30.25 14.5922 30.25 16.4828C30.25 18.3734 29.8891 20.1552 29.1672 21.8281C28.4453 23.501 27.4599 24.962 26.2109 26.2109C24.962 27.4599 23.5068 28.4453 21.8453 29.1672C20.1839 29.8891 18.4078 30.25 16.5172 30.25C14.6266 30.25 12.8448 29.8891 11.1719 29.1672ZM16.5 27.4313C17.0958 26.6063 17.6115 25.7469 18.0469 24.8531C18.4823 23.9594 18.8375 23.0083 19.1125 22H13.8875C14.1625 23.0083 14.5177 23.9594 14.9531 24.8531C15.3885 25.7469 15.9042 26.6063 16.5 27.4313ZM12.925 26.8813C12.5125 26.125 12.1516 25.3401 11.8422 24.5266C11.5328 23.713 11.275 22.8708 11.0687 22H7.0125C7.67708 23.1458 8.50781 24.1427 9.50469 24.9906C10.5016 25.8385 11.6417 26.4688 12.925 26.8813ZM20.075 26.8813C21.3583 26.4688 22.4984 25.8385 23.4953 24.9906C24.4922 24.1427 25.3229 23.1458 25.9875 22H21.9313C21.725 22.8708 21.4672 23.713 21.1578 24.5266C20.8484 25.3401 20.4875 26.125 20.075 26.8813ZM5.84375 19.25H10.5187C10.45 18.7917 10.3984 18.3391 10.3641 17.8922C10.3297 17.4453 10.3125 16.9813 10.3125 16.5C10.3125 16.0188 10.3297 15.5547 10.3641 15.1078C10.3984 14.6609 10.45 14.2083 10.5187 13.75H5.84375C5.72917 14.2083 5.64323 14.6609 5.58594 15.1078C5.52865 15.5547 5.5 16.0188 5.5 16.5C5.5 16.9813 5.52865 17.4453 5.58594 17.8922C5.64323 18.3391 5.72917 18.7917 5.84375 19.25ZM13.2687 19.25H19.7313C19.8 18.7917 19.8516 18.3391 19.8859 17.8922C19.9203 17.4453 19.9375 16.9813 19.9375 16.5C19.9375 16.0188 19.9203 15.5547 19.8859 15.1078C19.8516 14.6609 19.8 14.2083 19.7313 13.75H13.2687C13.2 14.2083 13.1484 14.6609 13.1141 15.1078C13.0797 15.5547 13.0625 16.0188 13.0625 16.5C13.0625 16.9813 13.0797 17.4453 13.1141 17.8922C13.1484 18.3391 13.2 18.7917 13.2687 19.25ZM22.4813 19.25H27.1563C27.2708 18.7917 27.3568 18.3391 27.4141 17.8922C27.4714 17.4453 27.5 16.9813 27.5 16.5C27.5 16.0188 27.4714 15.5547 27.4141 15.1078C27.3568 14.6609 27.2708 14.2083 27.1563 13.75H22.4813C22.55 14.2083 22.6016 14.6609 22.6359 15.1078C22.6703 15.5547 22.6875 16.0188 22.6875 16.5C22.6875 16.9813 22.6703 17.4453 22.6359 17.8922C22.6016 18.3391 22.55 18.7917 22.4813 19.25ZM21.9313 11H25.9875C25.3229 9.85417 24.4922 8.85729 23.4953 8.00937C22.4984 7.16146 21.3583 6.53125 20.075 6.11875C20.4875 6.875 20.8484 7.6599 21.1578 8.47344C21.4672 9.28698 21.725 10.1292 21.9313 11ZM13.8875 11H19.1125C18.8375 9.99167 18.4823 9.04062 18.0469 8.14687C17.6115 7.25312 17.0958 6.39375 16.5 5.56875C15.9042 6.39375 15.3885 7.25312 14.9531 8.14687C14.5177 9.04062 14.1625 9.99167 13.8875 11ZM7.0125 11H11.0687C11.275 10.1292 11.5328 9.28698 11.8422 8.47344C12.1516 7.6599 12.5125 6.875 12.925 6.11875C11.6417 6.53125 10.5016 7.16146 9.50469 8.00937C8.50781 8.85729 7.67708 9.85417 7.0125 11Z" fill="white"/>
</g>
</svg>
